<svg xmlns="http://www.w3.org/2000/svg" viewBox="0 0 1024 1024" width="1024" height="1024">
  <!--
    Launch-screen variant: derived from the master icon with the square
    background, starfield and vignette stripped so the artwork blends
    seamlessly with the solid LaunchBackground colour ($#07102E$). Only
    the figure (peaks, gem, glow, sparkles, base shadow join) remains.
    Geometry and gradients are otherwise byte-for-byte the same as the
    master.
  -->
  <defs>
    <linearGradient id="blueLight" x1="0%" y1="0%" x2="0%" y2="100%">
      <stop offset="0%"  stop-color="#A9ECFF"/>
      <stop offset="40%" stop-color="#3EA4FF"/>
      <stop offset="100%" stop-color="#1747C8"/>
    </linearGradient>
    <linearGradient id="blueDark" x1="0%" y1="0%" x2="0%" y2="100%">
      <stop offset="0%"  stop-color="#12368E"/>
      <stop offset="60%" stop-color="#081854"/>
      <stop offset="100%" stop-color="#030722"/>
    </linearGradient>
    <linearGradient id="blueTop" x1="0%" y1="0%" x2="0%" y2="100%">
      <stop offset="0%"  stop-color="#EAFBFF"/>
      <stop offset="100%" stop-color="#68C4FF"/>
    </linearGradient>
    <linearGradient id="redLight" x1="0%" y1="0%" x2="0%" y2="100%">
      <stop offset="0%"  stop-color="#FFD0C6"/>
      <stop offset="40%" stop-color="#FF5A5F"/>
      <stop offset="100%" stop-color="#C21230"/>
    </linearGradient>
    <linearGradient id="redDark" x1="0%" y1="0%" x2="0%" y2="100%">
      <stop offset="0%"  stop-color="#8A0E24"/>
      <stop offset="60%" stop-color="#540615"/>
      <stop offset="100%" stop-color="#1F0208"/>
    </linearGradient>
    <linearGradient id="redTop" x1="0%" y1="0%" x2="0%" y2="100%">
      <stop offset="0%"  stop-color="#FFECE8"/>
      <stop offset="100%" stop-color="#FF8A80"/>
    </linearGradient>

    <linearGradient id="gemTopL" x1="0%" y1="0%" x2="0%" y2="100%">
      <stop offset="0%" stop-color="#F8FDFF"/>
      <stop offset="100%" stop-color="#5ECBFF"/>
    </linearGradient>
    <linearGradient id="gemTopR" x1="0%" y1="0%" x2="0%" y2="100%">
      <stop offset="0%" stop-color="#FFF4F1"/>
      <stop offset="100%" stop-color="#FF8A80"/>
    </linearGradient>
    <linearGradient id="gemL" x1="0%" y1="0%" x2="100%" y2="100%">
      <stop offset="0%" stop-color="#49B5FF"/>
      <stop offset="100%" stop-color="#0C3FB3"/>
    </linearGradient>
    <linearGradient id="gemR" x1="100%" y1="0%" x2="0%" y2="100%">
      <stop offset="0%" stop-color="#FF6A6F"/>
      <stop offset="100%" stop-color="#8A0E24"/>
    </linearGradient>
    <radialGradient id="goldGlow" cx="50%" cy="50%" r="50%">
      <stop offset="0%"  stop-color="#FFFFFF" stop-opacity="1"/>
      <stop offset="30%" stop-color="#FFE9A8" stop-opacity="0.85"/>
      <stop offset="100%" stop-color="#FFB347" stop-opacity="0"/>
    </radialGradient>

    <symbol id="spark" viewBox="-10 -10 20 20">
      <path d="M0,-10 L2.5,-2.5 L10,0 L2.5,2.5 L0,10 L-2.5,2.5 L-10,0 L-2.5,-2.5 Z" fill="#FFFFFF"/>
    </symbol>
  </defs>

  <!-- LEFT PEAK: BLUE (income).
       The "cap" trapezoid is constrained to the peak silhouette at y=196
       so it does not poke out beyond the main shape (the master's cap
       overhangs by ~3 px on each side, which is invisible against the
       master's gradient background but reads as ears against the solid
       launch background). -->
  <polygon points="296,176 388,176 388,876 60,876" fill="url(#blueLight)"/>
  <polygon points="388,176 584,876 388,876" fill="url(#blueDark)"/>
  <polygon points="296,176 388,176 394,196 289,196" fill="url(#blueTop)"/>
  <polyline points="296,176 60,876" fill="none" stroke="#E4F6FF" stroke-width="4" stroke-linecap="butt" opacity="0.9"/>
  <polyline points="388,176 584,876" fill="none" stroke="#05102E" stroke-width="3" stroke-linecap="butt" opacity="0.8"/>
  <line x1="388" y1="176" x2="388" y2="876" stroke="#1B47B5" stroke-width="2" opacity="0.5"/>

  <!-- RIGHT PEAK: RED (expense). Cap likewise constrained to silhouette. -->
  <polygon points="636,176 728,176 964,876 636,876" fill="url(#redLight)"/>
  <polygon points="636,176 636,876 440,876" fill="url(#redDark)"/>
  <polygon points="636,176 728,176 735,196 630,196" fill="url(#redTop)"/>
  <polyline points="728,176 964,876" fill="none" stroke="#FFE4E0" stroke-width="4" stroke-linecap="butt" opacity="0.9"/>
  <polyline points="636,176 440,876" fill="none" stroke="#1F0208" stroke-width="3" stroke-linecap="butt" opacity="0.8"/>
  <line x1="636" y1="176" x2="636" y2="876" stroke="#7A0E1F" stroke-width="2" opacity="0.55"/>

  <!-- Base shadow join between peaks -->
  <polygon points="388,876 584,876 512,900" fill="#030826" opacity="0.6"/>
  <polygon points="440,876 636,876 512,900" fill="#030826" opacity="0.5"/>

  <!-- Warm balance glow behind gem -->
  <circle cx="512" cy="560" r="230" fill="url(#goldGlow)" opacity="0.85"/>

  <!-- HEXAGONAL BALANCE GEM -->
  <g>
    <polygon points="512,420 614,478 614,602 512,660 410,602 410,478" fill="#0A1030"/>
    <polygon points="512,420 410,478 512,536" fill="url(#gemTopL)"/>
    <polygon points="512,420 614,478 512,536" fill="url(#gemTopR)"/>
    <polygon points="410,478 512,536 512,660 410,602" fill="url(#gemL)"/>
    <polygon points="614,478 512,536 512,660 614,602" fill="url(#gemR)"/>
    <polygon points="512,420 614,478 614,602 512,660 410,602 410,478" fill="none" stroke="#FFF5D8" stroke-width="3.5" opacity="0.95"/>
    <line x1="512" y1="420" x2="512" y2="660" stroke="#FFD56B" stroke-width="3" opacity="0.95"/>
    <line x1="410" y1="478" x2="512" y2="536" stroke="#EAF9FF" stroke-width="2" opacity="0.7"/>
    <line x1="614" y1="478" x2="512" y2="536" stroke="#FFE3DE" stroke-width="2" opacity="0.7"/>
    <polygon points="440,484 500,454 508,492 458,506" fill="#FFFFFF" opacity="0.5"/>
  </g>

  <!-- Sparkles -->
  <use href="#spark" x="360" y="430" width="30" height="30"/>
  <use href="#spark" x="650" y="460" width="22" height="22"/>
  <use href="#spark" x="552" y="370" width="18" height="18"/>
  <use href="#spark" x="470" y="700" width="18" height="18"/>
</svg>
